<svg width="399.6" height="197.59637744851474" viewBox="0 0 349.99999999999994 173.069900167618" class="looka-1j8o68f">
  <defs id="SvgjsDefs7599"></defs>
  <g id="SvgjsG7600" featurekey="ECw45b-0" transform="matrix(1.4155700436062175,0,0,1.4155700436062175,104.58235014361023,-8.518415378211944)" fill="#1c3043">
    <path xmlns="http://www.w3.org/2000/svg" d="M39,12l-4.4,4.3l31.2,15.5L51.4,47.3l-12-2.1l-3,3l11.6,6.4l6.3,11.7l3-3l-1.9-12l15.9-14l14.9,31.2l4.4-4.3l-6.3-38.9  c3-2.8,7.2-7,10.1-9.8c3.6-3.5,3.8-6.5,2-8.3c-1.8-1.8-4.9-1.8-8.5,1.8c-2.9,2.8-7.1,7.1-9.9,10l-38.4-7.6 M39.4,57.4  c-1.9,0.8-4.3,1.7-5.3,2.1l-1.7,0.7l-0.1-0.5c-0.2-0.7-0.7-1.8-1.1-2.4c-0.8-1.2-1.6-1.9-2.9-2.5c-3.7-1.9-8.3-0.4-10.1,3.3  l-0.3,0.6l-1-0.1c-0.5,0-1.2-0.1-1.5-0.1c-0.9,0.1-2.3,0.4-3.3,0.9c-1,0.5-1.6,1-2.5,1.8c-1.5,1.5-2.3,3.8-2.3,6l0,0.8l-0.6,0.3  c-1.9,1.1-3.3,2.8-3.9,4.8c-1.1,3.5,0.2,7.4,3.3,9.6c0.9,0.7,2.9,1.4,4,1.5c0.4,0,0.8,0.1,0.9,0.1c0.1,0,0.1,0.2,0.1,0.6  c-0.1,1.4,0.3,2.9,0.9,4.2c1.7,3.4,5.4,5.2,9.3,4.6c0.5-0.1,1.2-0.3,2-0.7c1.1-0.5,1.3-0.6,2.1-1.4c0.9-0.8,1.4-1.4,1.8-2.3l0.2-0.4  l0.4,0.1c0.8,0.2,2.1,0.3,2.9,0.2c0.4,0,0.8-0.1,0.8,0c0.1,0,0.2,0.2,0.4,0.4c0.9,1.3,2,2.1,3.6,2.7c1,0.4,1.3,0.4,2,0.5  c3.5,0.2,6.4-1.6,7.6-4.8c0.9-2.3,0.6-4.6-0.7-6.7c-0.2-0.3-0.2-0.3,0-0.6c0.4-0.5,1-2,1.2-2.8c0.4-2,0-4.1-1.3-5.7  c-0.6-0.8-1.2-1.4-1.9-1.9l-0.4-0.3l0.1-0.5c0.1-0.3,0.8-2.9,1.7-5.8c0.9-2.9,1.6-5.5,1.7-5.7c0.1-0.4-0.1-0.6-0.3-0.3  c-0.1,0.2-5.8,12.7-5.9,12.9c0,0,0.3,0.2,0.6,0.4c1.1,0.6,1.9,1.2,2.3,1.7c0.6,0.6,1.1,1.8,1.4,2.9c0.4,1.7,0.4,2.6-0.5,4.5  c-0.6,1.3-1,1.9-1.6,2.4c-0.8,0.7-0.6,0.9,0.3,0.4c0.3-0.2,0.6-0.3,0.7-0.3c0,0,0.2,0.3,0.3,0.6c1.8,3.9-1.2,8.2-5.5,7.9  c-0.8,0-0.9-0.1-2.1-0.6c-1.1-0.5-1.4-0.6-1.9-1.1c-1.1-0.9-2.3-2.6-2.6-3.5c-0.1-0.5-0.4-0.7-0.5-0.4c0,0.1,0,0.6,0.1,1  c0.1,0.4,0.1,0.8,0.1,0.9c-0.2,0.2-1.8,0.1-3-0.2s-1.6-0.3-3-0.9c-1.4-0.6-1.6-0.6-1.7-0.5c-0.1,0.2,1,1.3,1.9,2l0.7,0.5l-0.2,0.3  c-0.4,0.6-1.1,1.5-1.7,2c-0.7,0.6-2.1,1.2-3.1,1.4c-1.5,0.3-3.1,0-4.3-0.6c-1.4-0.8-2.2-1.6-3.1-3.3c-1.4-2.5-1.6-3.7-1.1-5.9  c0.2-1.1,0.2-1.4,0-1.2c-0.1,0.1-0.3,0.4-0.4,0.8l-0.3,0.7l-0.7,0c-1.1,0-2.1-0.3-2.9-0.7C6.5,81,5.7,80.1,5,78.6  c-0.4-0.9-0.5-1.3-0.6-2c0-0.5,0-1.2,0-1.6c0.1-0.9,0.6-2.2,1.1-2.9c0.4-0.6,1.5-1.6,2-1.9L7.8,70l0.4,0.7c0.5,1,1.5,2.3,1.8,2.4  c0.2,0.1,0.2-0.3-0.2-0.8c-0.6-1-1-2.4-0.9-3.9c0.1-1.3,0.5-3.2,0.9-4.2c1.2-2.7,4.3-4.3,7.3-3.8c0.3,0,0.3,0.1,0.3,0.6  c0,1,0.1,2.1,0.5,3.1c0.3,0.8,0.7,0.7,0.4-0.1c-0.2-0.7-0.2-1.7-0.1-2.5c0.4-1.4,1.1-2.7,2.5-4c0.7-0.7,1-0.9,1.8-1.2  c1.6-0.7,3-0.7,4.6,0c1.1,0.5,1.7,1,2.4,1.9c0.7,0.9,0.9,1.7,1.1,3.5c0.1,0.8,0.2,1.5,0.2,1.5c0,0,2.8-1.6,6.2-3.5  c4.6-2.6,6.1-3.5,6-3.6C43.1,56,43,56,43,56C43,55.9,41.4,56.6,39.4,57.4z"></path>
  </g>
  <g id="SvgjsG7601" featurekey="6sJQsk-0" transform="matrix(2.0020591770763105,0,0,2.0020591770763105,-1.3213592287084825,132.50818078181695)" fill="#1e3850">
    <path d="M0.78 20 l0 -0.54 l0.34 -0.34 c0.36 -0.36 0.56 -0.82 0.56 -1.36 l0 -9.32 c0 -0.48 -0.22 -0.92 -0.52 -1.28 l-0.5 -0.58 l0 -0.58 l3.18 0 l4.98 11.58 l4.9 -11.58 l3.28 0 l0 0.58 l-0.54 0.58 c-0.32 0.34 -0.52 0.8 -0.52 1.3 l0 9.16 c0 0.46 0.14 0.92 0.5 1.28 l0.52 0.56 l0 0.54 l-4.24 0 l0 -0.54 l0.52 -0.56 c0.32 -0.36 0.48 -0.82 0.48 -1.28 l0 -9.8 l-4.56 10.66 l-2.16 0 l-4.48 -10.42 l0 10 c0 0.52 0.24 1.02 0.62 1.4 l0 0.54 l-2.36 0 z M19.506 20 l0 -0.58 l0.9 -0.94 c0.12 -0.08 0.2 -0.22 0.24 -0.34 l4.74 -12.14 l2.22 0 l4.7 12.04 c0.08 0.18 0.22 0.36 0.38 0.44 l1.08 0.94 l0 0.58 l-4.24 0 l0 -0.58 l0.12 -0.06 c0.46 -0.3 0.66 -0.9 0.44 -1.44 l-0.94 -2.36 l-6.56 0 l-0.98 2.54 c-0.2 0.44 -0.06 1 0.3 1.32 l0 0.58 l-2.4 0 z M22.906000000000002 14.74 l5.96 0 l-3 -7.5 z M32.866 17.02 l-0.7 -1.74 l0.48 -6.86 c0.08 -0.48 -0.1 -0.94 -0.38 -1.26 l-0.48 -0.58 l0 -0.58 l3.24 0 l7.16 12.64 l0.8 -10.96 c0 -0.42 -0.24 -0.78 -0.52 -1.08 l0 -0.6 l2.42 0 l0 0.6 l-0.38 0.34 c-0.38 0.34 -0.62 0.84 -0.66 1.32 l-0.88 11.74 l-2.18 0 l-7.02 -12.32 l-0.18 0 z M48.572 13.16 l0 -4.62 c0 -0.56 -0.26 -1.06 -0.62 -1.48 l-0.44 -0.5 l0 -0.56 l4.22 0 l0 0.56 l-0.4 0.5 c-0.34 0.42 -0.6 0.92 -0.6 1.48 l0 4.42 c0 3.48 1.68 5.9 4.06 5.9 c2.98 0 4.38 -2.42 4.38 -5.9 l0 -4.74 c0 -0.6 -0.28 -1.22 -0.76 -1.62 l0 -0.6 l2.38 0 l0 0.6 c-0.46 0.4 -0.74 1.02 -0.74 1.62 l0 4.78 c0 3.9 -1.98 7.1 -5.36 7.1 c-3.34 0 -6.12 -2.14 -6.12 -6.94 z M63.238 20 l0 -0.54 l0.9 -0.96 c0.1 -0.12 0.16 -0.22 0.24 -0.4 l4.74 -12.1 l2.16 0 l4.76 12.06 c0.08 0.2 0.2 0.32 0.36 0.46 l1.1 0.94 l0 0.54 l-4.26 0 l0 -0.54 l0.1 -0.06 c0.5 -0.34 0.68 -0.92 0.46 -1.48 l-0.92 -2.34 l-6.58 0 l-1 2.52 c-0.18 0.48 -0.04 1.02 0.34 1.36 l0 0.54 l-2.4 0 z M66.618 14.780000000000001 l5.96 0 l-2.98 -7.6 z M79.98400000000001 20 l0 -0.56 c0.62 -0.7 1.04 -1.64 1.04 -2.62 l0 -7.64 c0 -0.98 -0.38 -1.92 -1.04 -2.62 l0 -0.56 l4.24 0 l0 0.56 c-0.7 0.7 -1.04 1.64 -1.04 2.62 l0 9.9 l3.18 0 c1.02 0 2.06 -0.32 2.92 -0.94 l0.6 0 l0 1.86 l-9.9 0 z M85.244 16.7 l0 -0.58 c0.66 -0.76 1.04 -1.64 1.04 -2.64 l0 -4.3 c0 -0.98 -0.38 -1.92 -1.04 -2.62 l0 -0.56 l4.26 0 l0 0.56 c-0.66 0.7 -1.02 1.64 -1.02 2.62 l0 6.54 l1.34 0 c1.06 0 2.06 -0.3 2.94 -0.94 l0.6 0 l0 1.92 l-8.12 0 z M97.01 20 l0 -0.54 c0.68 -0.7 1.08 -1.66 1.08 -2.64 l0 -3.32 l-3.68 -5.84 c-0.08 -0.14 -0.2 -0.28 -0.34 -0.36 l-1.12 -0.74 l0 -0.56 l4.04 0 l0 0.56 l-0.1 0.1 c-0.34 0.4 -0.36 0.96 -0.12 1.34 l3.1 5.1 l3.38 -5 c0.3 -0.46 0.22 -1.14 -0.22 -1.5 l0 -0.6 l2.42 0 l0 0.6 l-0.6 0.38 c-0.1 0.08 -0.2 0.18 -0.28 0.28 l-4.32 6.28 l0 3.28 c0 0.98 0.38 1.94 1.06 2.64 l0 0.54 l-4.3 0 z M107.936 20 l0 -0.54 l0.78 -0.84 c0.16 -0.18 0.26 -0.4 0.26 -0.64 l0 -9.92 c0 -0.24 -0.1 -0.48 -0.26 -0.64 l-0.78 -0.84 l0 -0.58 l6.26 0 c2.44 0 4.38 2.06 4.22 4.54 c-0.12 2.26 -2.14 4 -4.36 4 l-0.5 0 l1.5 0.28 l2.12 2.68 c0.48 0.6 1.08 1.16 1.72 1.62 l0.46 0.34 l0 0.54 l-3.76 0 l0 -0.54 c0.3 -0.38 0.3 -0.88 0 -1.2 l-3 -3.72 l-1.44 0 l0 3.78 l1.02 1.14 l0 0.54 l-4.24 0 z M111.156 13.86 l2.34 0 c2 0 3.62 -1.6 3.62 -3.6 s-1.62 -3.6 -3.62 -3.6 l-2.34 0 l0 7.2 z M122.202 20 l0 -0.54 c0.62 -0.74 1.02 -1.68 1.02 -2.62 l0 -7.66 c0 -0.96 -0.4 -1.92 -1.02 -2.62 l0 -0.56 l4.24 0 l0 0.56 c-0.68 0.7 -1.06 1.66 -1.06 2.62 l0 7.66 c0 0.94 0.38 1.88 1.06 2.62 l0 0.54 l-4.24 0 z M143.868 20 l-0.14 -0.1 c-1.12 -0.66 -2.44 -0.7 -3.64 -0.22 c-0.9 0.36 -1.92 0.58 -2.96 0.58 c-4.2 0 -7.6 -3.14 -7.6 -7.26 s3.4 -7.26 7.6 -7.26 l0.76 0 c2.6 0 4.92 1.54 5.96 3.9 l-2.96 0 c-1.44 -2.2 -3.7 -3.46 -5.74 -2.98 c-2.7 0.64 -3.66 3.84 -2.56 7.44 c1.1 3.64 3.84 5.92 6.52 5.28 c1.06 -0.26 1.92 -0.96 2.48 -1.9 l0 -2.92 l-2.02 0 l0 -1 l4.3 0 l0 6.44 z M147.25400000000002 20 l0 -0.54 c0.68 -0.74 1.04 -1.68 1.04 -2.6 l0 -7.68 c0 -0.96 -0.36 -1.92 -1.02 -2.62 l0 -0.56 l4.26 0 l0 0.56 c-0.68 0.7 -1.08 1.66 -1.08 2.62 l0 3.56 l6.16 0 l0 -3.56 c0 -0.96 -0.38 -1.92 -1.06 -2.62 l0 -0.56 l4.26 0 l0 0.56 c-0.66 0.7 -1.02 1.66 -1.02 2.62 l0 7.68 c0 0.92 0.36 1.86 1.02 2.6 l0 0.54 l-4.26 0 l0 -0.54 c0.68 -0.74 1.06 -1.68 1.06 -2.6 l0 -3.2 l-6.16 0 l0 3.2 c0 0.92 0.4 1.86 1.04 2.6 l0 0.54 l-4.24 0 z M166.82 20 l0 -0.54 c0.68 -0.7 1.04 -1.64 1.04 -2.62 l0 -9.88 l-1.84 0 c-0.94 0 -1.86 0.36 -2.48 1.06 l-1.12 0 l0 -2.02 l13.06 0 l0 2.02 l-1.08 0 c-0.64 -0.7 -1.6 -1.06 -2.52 -1.06 l-1.8 0 l0 9.88 c0 0.98 0.32 1.92 1 2.62 l0 0.54 l-4.26 0 z"></path>
  </g>
</svg>